<svg xmlns="http://www.w3.org/2000/svg" viewBox="0 0 484.64 158.47">
  <defs>
    <style>
      .cls-1 {
        fill: #161819;
      }
    </style>
  </defs>
  <title>Asset 1</title>
  <g id="Layer_2" data-name="Layer 2">
    <g id="Layer_1-2" data-name="Layer 1">
      <g>
        <path class="cls-1" d="M260.93,104.23c0,23.63,17.18,32.6,38.4,32.6,23.34,0,32-11.61,32-22.85,0-11.68-6.37-16.31-12.52-18.65-10.82-4-24.19-6.77-45.19-12.5-26.1-6.79-33.53-22.69-33.53-38.39,0-30.55,28-44.44,55.38-44.44,31.4,0,58.14,16.39,58.14,48.5H327.12c-1.48-20-14.21-26.85-32.67-26.85-12.31,0-27.8,4.4-27.8,19.67,0,10.82,7.22,16.31,18,19.49,2.33.64,35.86,9.32,43.71,11.66,19.73,6.15,29.49,22.48,29.49,38.6,0,34-30.34,47.4-60.26,47.4-34.58,0-62.59-16.68-63.23-54.24Z"/>
        <path class="cls-1" d="M381.05,3.67h26.66V132.1h76.93v23H381.05Z"/>
        <path class="cls-1" d="M66.82,79.44A75.66,75.66,0,0,1,68,66.07H0V92.72H68A76.83,76.83,0,0,1,66.82,79.44Z"/>
        <path class="cls-1" d="M219.88,79.48A76.26,76.26,0,0,0,143.65,3a69.74,69.74,0,0,0-19.41,2.56V32a46,46,0,0,1,19.41-4.86,52.2,52.2,0,0,1,52.11,52.32c0,.06,0,.11,0,.17s0,.12,0,.17a52.14,52.14,0,0,1-52,52.33,46.17,46.17,0,0,1-19.42-4.86v26.49a69.73,69.73,0,0,0,19.41,2.57A76.34,76.34,0,0,0,220,79.82s0-.11,0-.17S219.88,79.54,219.88,79.48Z"/>
      </g>
    </g>
  </g>
</svg>
